<?xml version="1.0" encoding="utf-8" ?>
<svg xmlns="http://www.w3.org/2000/svg" xmlns:xlink="http://www.w3.org/1999/xlink" width="48" height="48" viewBox="0 0 48 48">
	<defs>
		<clipPath id="clipPath2641635979">
			<path d="M0 0L48 0L48 48L0 48L0 0Z" fill-rule="nonzero" transform="matrix(1 0 0 1 0 0)"/>
		</clipPath>
	</defs>
	<g clip-path="url(#clipPath2641635979)">
		<path d="M38 18.44C38 7.46 29.48 0 20 0C10.62 0 2 7.3 2 18.56C0.8 19.24 0 20.52 0 22L0 26C0 28.2 1.8 30 4 30L6 30L6 17.8C6 10.06 12.26 3.8 20 3.8C27.74 3.8 34 10.06 34 17.8L34 32L18 32L18 36L34 36C36.2 36 38 34.2 38 32L38 29.56C39.18 28.94 40 27.72 40 26.28L40 21.68C40 20.28 39.18 19.06 38 18.44Z" fill-rule="nonzero" transform="matrix(1 0 0 1 4 6)" fill="rgb(201, 165, 92)"/>
		<circle cx="2" cy="2" r="2" transform="matrix(1 0 0 1 16 24)" fill="rgb(201, 165, 92)"/>
		<circle cx="2" cy="2" r="2" transform="matrix(1 0 0 1 28 24)" fill="rgb(201, 165, 92)"/>
		<path d="M23.9892 10.06C23.4969 7.15727 22.1265 4.75552 19.8781 2.85476C17.6297 0.954003 15.0334 0.00241598 12.0892 0C6.0292 0 -0.490804 5.02 0.0291958 12.9C2.53382 11.8751 4.64731 10.3189 6.36965 8.23157C8.092 6.1442 9.21852 3.77367 9.7492 1.12C12.3692 6.38 17.7492 10 23.9892 10.06Z" fill-rule="nonzero" transform="matrix(1 0 0 1 12.0108 12)" fill="rgb(201, 165, 92)"/>
	</g>
</svg>
